# xmcd
#
# Track frame offsets:
#	150
#	21912
#	43289
#	63699
#	82853
#	98508
#	116706
#	135741
#	151779
#	170232
#	185341
#	202111
#
# Disc length: 2961 seconds
#
# Revision: 0
# Processed by: cddbd v1.5.2PL0 Copyright (c) Steve Scherf et al.
# Submitted via: EasyCDDAExtractor 8.2.2.1
#
DISCID=a50b8f0c
DTITLE=Various Artist - GRAMMY HOT SINGLE Vol. 6
DYEAR=2009
DGENRE=Pop
TTITLE0=เสก โลโซ - ไม่ยอมตัดใจ
TTITLE1=บอย Peacemaker - ใจฉันเป็นของเธอ
TTITLE2=Potato - แชร์ (Share)
TTITLE3=อะตอม Mic Idol - ห้ามทิ้ง
TTITLE4=เตชินท์ - คำตอบของหัวใจ
TTITLE5=เต้น Mic Idol - ถามเอาอะไร
TTITLE6=Nologo - เคว้งคว้าง
TTITLE7=Golf and Mike - You
TTITLE8=ฟาเรนไฮธ์ - คืนเหงา
TTITLE9=เต้ วิทย์สรัช - รักกันครั้งหนึ่ง...คิดถึงตลอดไป
TTITLE10=ชิน ชินวุฒ - หัวใจไม่ใช่กระดาษ
TTITLE11=Klear - รักไม่ต้องการเวลา
EXTD=
EXTT0=
EXTT1=
EXTT2=
EXTT3=
EXTT4=
EXTT5=
EXTT6=
EXTT7=
EXTT8=
EXTT9=
EXTT10=
EXTT11=
PLAYORDER=
